<svg width="105" height="102" viewBox="0 0 105 102" fill="none" xmlns="http://www.w3.org/2000/svg">
<path d="M52.9622 101.753C24.2671 101.753 0.923828 78.9329 0.923828 50.8718C0.923828 22.8107 24.2671 0 52.9622 0C81.6572 0 105 22.82 105 50.8718C105 78.9236 81.6572 101.744 52.9622 101.744V101.753ZM52.9622 7.71237C28.6172 7.71237 8.81305 27.0726 8.81305 50.8718C8.81305 74.671 28.6172 94.0406 52.9717 94.0406C77.3262 94.0406 97.1303 74.6804 97.1303 50.8718C97.1303 27.0632 77.3167 7.71237 52.9622 7.71237V7.71237Z" fill="#375953"/>
<path d="M56.9048 25.3093H49.0156V83.3806H56.9048V25.3093Z" fill="#375953"/>
<path d="M32.3482 50.9177L26.7676 45.4621L52.9537 19.863L79.1493 45.4621L73.5687 50.9177L52.9537 30.7648L32.3482 50.9177Z" fill="#375953"/>
</svg>
