<svg width="103" height="29" viewBox="0 0 103 29" fill="none" xmlns="http://www.w3.org/2000/svg">
<path fill-rule="evenodd" clip-rule="evenodd" d="M41.141 6.08826H47.1345C52.0902 6.08826 54.4404 9.37808 54.4404 14.2006C54.4404 19.0231 51.9286 22.1992 46.9728 22.1992H41.141V6.08826ZM46.9034 20.4185C50.7761 20.4185 52.3198 17.9851 52.3198 14.1991C52.3198 10.4132 50.9362 7.84539 47.065 7.84539H43.2164V20.4185H46.9034ZM6.05884 14.143C6.05884 18.586 9.75488 22.1992 14.2983 22.1992V22.1978C18.8417 22.1978 22.5377 18.5846 22.5377 14.143C22.5377 9.70146 18.8417 6.08827 14.2983 6.08827C9.75488 6.08827 6.05884 9.69999 6.05884 14.143ZM7.30797 14.143C7.30797 10.3748 10.4436 7.3094 14.2983 7.3094C18.1544 7.3094 21.2916 10.3733 21.2916 14.143C21.2916 17.9127 18.1559 20.9781 14.2998 20.9781C10.4436 20.9781 7.30797 17.9112 7.30797 14.143ZM11.0355 14.1504L13.6746 11.5693V19.2904H14.9237V11.5711L17.5621 14.1504L18.4457 13.2866L14.2981 9.23338L10.1519 13.2866L11.0355 14.1504ZM33.2807 6.08827H30.9531L24.8917 22.1992H27.0124L28.7872 17.2867H35.3561L37.1082 22.1992H39.3663L33.2807 6.08827ZM34.7791 15.6417H29.3868L31.3458 10.2345C31.6691 9.31165 32.1071 7.9591 32.1071 7.9591H32.1524C32.1524 7.9591 32.5663 9.33379 32.8895 10.2345L34.7791 15.6417ZM63.1753 6.08826H60.8477L54.7863 22.1992H56.907L58.6818 17.2866H65.2506L67.0028 22.1992H69.2609L63.1753 6.08826ZM64.6737 15.6417H59.2814L61.2404 10.2345C61.5637 9.31163 62.0017 7.95908 62.0017 7.95908H62.047C62.047 7.95908 62.4609 9.33378 62.7841 10.2345L64.6737 15.6417ZM71.0357 6.08826H77.9036C79.6316 6.08826 80.9698 6.65083 81.8217 7.6431C82.5135 8.43159 82.9288 9.4903 82.9288 10.707C82.9288 13.6587 81.2009 15.4394 77.6046 15.4394H73.1095V22.1992H71.0357V6.08826ZM73.111 13.7945H77.4429C79.7705 13.7945 80.8777 12.6457 80.8777 10.7971C80.8777 8.94839 79.6557 7.84539 77.5592 7.84539H73.111V13.7945ZM96.9411 6.08826H83.8955V7.86754H89.3814V22.1992H91.4552V7.86754H96.9411V6.08826Z" fill="#375953"/>
</svg>
